<?xml version="1.0" encoding="utf-8"?>
<!-- Generator: Adobe Illustrator 26.0.1, SVG Export Plug-In . SVG Version: 6.00 Build 0)  -->
<svg version="1.1" id="Слой_1" xmlns="http://www.w3.org/2000/svg" xmlns:xlink="http://www.w3.org/1999/xlink" x="0px" y="0px"
	 viewBox="0 0 100 100" style="enable-background:new 0 0 100 100;" xml:space="preserve">
<style type="text/css">
	.st0{fill:#FCFAFA;}
	.st1{fill:#FCFCFC;}
</style>
<rect width="100" height="100"/>
<g>
	<g id="XMLID_00000065763212715424454330000003712318647785346205_">
		<g>
			<path class="st0" d="M93.25,19.21c2.32,0,3.93,2.3,3.15,4.47L77.78,75.77c-0.48,1.33-1.74,2.22-3.15,2.22h-3.59
				c-1.45,0-2.73-0.93-3.18-2.31l-17-52.08c-0.71-2.17,0.91-4.39,3.18-4.39h1.14c1.46,0,2.75,0.95,3.19,2.34l8.41,26.61
				c2.53,7.94,4.71,15.09,6.28,21.98h0.18c1.65-6.8,4.09-14.21,6.71-21.89l9.17-26.78c0.46-1.35,1.73-2.26,3.16-2.26H93.25z"/>
		</g>
		<g>
		</g>
	</g>
</g>
<path d="M28,23"/>
<g>
	<g id="XMLID_00000018957461612382110070000001338289483878235017_">
		<g>
			<path class="st1" d="M53.99,74.45c0.7,2.16-0.91,4.38-3.18,4.38h-1.14c-1.46,0-2.75-0.94-3.19-2.33l-8.42-26.62
				c-2.53-7.93-4.71-15.09-6.28-21.97h-0.17c-1.66,6.8-4.1,14.21-6.71,21.88l-9.17,26.78c-0.47,1.35-1.74,2.26-3.17,2.26h-0.97
				c-2.31,0-3.93-2.29-3.15-4.47l18.63-52.08c0.47-1.33,1.73-2.22,3.15-2.22h3.58c1.45,0,2.74,0.93,3.18,2.3L53.99,74.45z"/>
		</g>
		<g>
		</g>
	</g>
</g>
</svg>
